<svg width="17" height="16" viewBox="0 0 17 16" xmlns="http://www.w3.org/2000/svg"><title>Combined Shape</title><path d="M15.478 7.374v-.636h-5.244V8.01h5.244v-.636zM9.812 0v16L0 14.304V1.628L9.812 0zm.422 1.864H17v12.308h-6.766V1.864zm0 1.84h5.244V4.84h-5.244V3.703zm0 1.516h5.244v1.138h-5.244V5.22zm0 3.17h5.244v1.137h-5.244V8.39zm0 1.517h5.244v1.138h-5.244V9.907zm0 1.517h5.244v1.138h-5.244v-1.138zm-5.224-4.1h.06l1.015 3.546h1.061l1.431-5.265H7.408l-.83 3.761h-.06l-1-3.761h-.953l-.983 3.761h-.06l-.84-3.761H1.505l1.431 5.265h1.065l.073-.256a1066.242 1066.242 0 0 1 .433-1.518 426.238 426.238 0 0 0 .43-1.516l.073-.257z" fill="#000" fill-rule="evenodd" fill-opacity=".502"/></svg>